<svg width="234" height="40" viewBox="0 0 234 40" fill="none" xmlns="http://www.w3.org/2000/svg">
<g clip-path="url(#clip0_2380_122645)">
<path d="M0.00138998 20H0V20.0014V40H15.6669C22.1103 40 27.3337 34.7766 27.3337 28.3333C27.3337 25.0688 25.9929 22.1175 23.832 20H23.8306L23.832 20.0014C21.7278 22.0634 18.8458 23.3348 15.6669 23.3348L8.16505 23.3347C4.98617 23.3347 2.10424 22.0634 0 20.0014L0.00138998 20Z" fill="#198CFF"/>
<path d="M8.16506 16.668C4.98618 16.668 2.10424 17.9394 0 20.0014C2.10424 22.0634 4.98617 23.3348 8.16505 23.3348L15.6669 23.3348C18.8458 23.3348 21.7278 22.0634 23.832 20.0014C21.7278 17.9394 18.8458 16.6681 15.6669 16.6681L8.16506 16.668Z" fill="#0151C9"/>
<path d="M0.00137699 20H0V0H15.6669C22.1103 0 27.3337 5.22334 27.3337 11.6667C27.3337 14.9311 25.9929 17.8825 23.832 20H23.8306C21.7264 17.9388 18.8451 16.668 15.6669 16.668L8.16505 16.668C4.98687 16.668 2.1055 17.9388 0.00137699 20Z" fill="#02D6CA"/>
<path d="M107.85 29.5C106.574 29.5 105.315 29.2756 104.072 28.8266C102.829 28.3777 101.727 27.7283 100.766 26.8785L103.326 23.8482C104.006 24.4093 104.759 24.8663 105.588 25.219C106.433 25.5558 107.22 25.7241 107.949 25.7241C109.589 25.7241 110.409 25.187 110.409 24.1127C110.409 23.5515 110.045 23.0866 109.316 22.7178C109.117 22.6056 108.595 22.3811 107.75 22.0444L105.315 21.0583C104.204 20.6254 103.285 19.9921 102.556 19.1583C101.843 18.3085 101.487 17.2663 101.487 16.0317C101.487 14.4765 102.133 13.1697 103.426 12.1115C104.718 11.0372 106.358 10.5001 108.347 10.5001C109.473 10.5001 110.575 10.7086 111.652 11.1254C112.746 11.5263 113.698 12.1195 114.51 12.9052L112.249 15.671C110.956 14.725 109.656 14.252 108.347 14.252C107.651 14.252 107.096 14.3883 106.681 14.6609C106.284 14.9334 106.085 15.3102 106.085 15.7912C106.085 16.2241 106.276 16.5689 106.657 16.8254C107.054 17.0659 107.717 17.3625 108.645 17.7153C108.794 17.7634 108.902 17.8035 108.968 17.8355L111.329 18.7494C113.814 19.7275 115.057 21.403 115.057 23.776C115.057 25.3794 114.403 26.7342 113.094 27.8406C111.801 28.9469 110.053 29.5 107.85 29.5Z" fill="white"/>
<path d="M89.8728 29.5C88.597 29.5 87.3377 29.2756 86.095 28.8266C84.8524 28.3777 83.7505 27.7283 82.7896 26.8785L85.3494 23.8482C86.0288 24.4093 86.7827 24.8663 87.6111 25.2191C88.4561 25.5558 89.2431 25.7241 89.9722 25.7241C91.6125 25.7241 92.4327 25.187 92.4327 24.1127C92.4327 23.5515 92.0681 23.0866 91.3391 22.7178C91.1403 22.6056 90.6184 22.3811 89.7733 22.0444L87.3377 21.0583C86.2276 20.6254 85.308 19.9921 84.579 19.1583C83.8665 18.3085 83.5103 17.2663 83.5103 16.0317C83.5103 14.4765 84.1565 13.1697 85.4489 12.1115C86.7412 11.0373 88.3816 10.5001 90.3698 10.5001C91.4965 10.5001 92.5984 10.7086 93.6753 11.1254C94.7689 11.5263 95.7216 12.1195 96.5335 12.9052L94.2718 15.671C92.9794 14.725 91.6788 14.252 90.3698 14.252C89.6739 14.252 89.1189 14.3883 88.7047 14.6609C88.307 14.9334 88.1082 15.3102 88.1082 15.7912C88.1082 16.2242 88.2987 16.5689 88.6798 16.8254C89.0775 17.0659 89.7402 17.3625 90.6681 17.7153C90.8172 17.7634 90.9249 17.8035 90.9912 17.8355L93.3522 18.7495C95.8376 19.7275 97.0802 21.403 97.0802 23.776C97.0802 25.3794 96.4258 26.7342 95.1168 27.8406C93.8244 28.9469 92.0764 29.5 89.8728 29.5Z" fill="white"/>
<path d="M69.7328 10.5L74.8546 29.4999L79.2948 29.4999L73.2478 10.5L69.7328 10.5Z" fill="white"/>
<path d="M71.5082 10.5L66.3864 29.4999L61.9462 29.4999L67.9932 10.5L71.5082 10.5Z" fill="white"/>
<rect x="65.1466" y="21.4456" width="10.7392" height="3.9239" fill="white"/>
<rect x="218.379" y="10.5001" width="14.8696" height="3.9239" fill="white"/>
<rect x="228.088" y="10.5001" width="18.9999" height="4.54349" transform="rotate(90 228.088 10.5001)" fill="white"/>
<rect x="202.891" y="10.5001" width="11.9783" height="3.9239" fill="white"/>
<rect x="202.891" y="25.5761" width="12.1848" height="3.9239" fill="white"/>
<rect x="202.891" y="17.9349" width="10.7392" height="3.9239" fill="white"/>
<rect x="207.434" y="10.5001" width="18.9999" height="4.54349" transform="rotate(90 207.434 10.5001)" fill="white"/>
<rect x="187.606" y="25.5762" width="11.9783" height="3.9239" fill="white"/>
<rect x="192.149" y="10.5001" width="18.9999" height="4.54349" transform="rotate(90 192.149 10.5001)" fill="white"/>
<rect x="172.323" y="25.576" width="11.9783" height="3.9239" fill="white"/>
<rect x="176.866" y="10.5001" width="18.9999" height="4.54349" transform="rotate(90 176.866 10.5001)" fill="white"/>
<path d="M159.458 10.5001L164.579 29.5L169.02 29.5L162.973 10.5001L159.458 10.5001Z" fill="white"/>
<path d="M161.233 10.5001L156.111 29.5L151.671 29.5L157.718 10.5001L161.233 10.5001Z" fill="white"/>
<rect x="154.871" y="21.4458" width="10.7392" height="3.9239" fill="white"/>
<path d="M145.582 10.5001L142.897 29.5L146.821 29.5L150.332 10.5001L145.582 10.5001Z" fill="white"/>
<path d="M140.391 10.5001L136.182 29.5L132.774 29.5L136.802 10.5001L140.391 10.5001Z" fill="white"/>
<path d="M137.112 10.5001L141.321 29.5L144.728 29.5L140.701 10.5001L137.112 10.5001Z" fill="white"/>
<path d="M131.743 10.5001L134.428 29.5L130.504 29.5L126.993 10.5001L131.743 10.5001Z" fill="white"/>
<path fill-rule="evenodd" clip-rule="evenodd" d="M53.1647 14.424H45.3169V10.5001H53.1647C56.3014 10.5001 58.8441 13.0428 58.8441 16.1794C58.8441 19.316 56.3014 21.8588 53.1647 21.8588H45.3169V17.9349H53.1647C54.1343 17.9349 54.9202 17.1489 54.9202 16.1794C54.9202 15.2099 54.1343 14.424 53.1647 14.424Z" fill="white"/>
<path fill-rule="evenodd" clip-rule="evenodd" d="M54.0941 21.8587H45.3169V17.9348H54.0941C57.2878 17.9348 59.8767 20.5238 59.8767 23.7174C59.8767 26.9111 57.2878 29.5 54.0941 29.5H45.3169V25.5761H54.0941C55.1206 25.5761 55.9528 24.744 55.9528 23.7174C55.9528 22.6909 55.1206 21.8587 54.0941 21.8587Z" fill="white"/>
<rect x="49.8579" y="10.5001" width="18.9999" height="4.54349" transform="rotate(90 49.8579 10.5001)" fill="white"/>
</g>
<defs>
<clipPath id="clip0_2380_122645">
<rect width="234" height="40" fill="white"/>
</clipPath>
</defs>
</svg>
