<svg width="234" height="40" viewBox="0 0 234 40" fill="none" xmlns="http://www.w3.org/2000/svg">
<g clip-path="url(#clip0_973_85317)">
<path d="M0.00138998 20H0V20.0014V40H15.6669C22.1103 40 27.3337 34.7766 27.3337 28.3333C27.3337 25.0688 25.9929 22.1175 23.832 20H23.8306L23.832 20.0014C21.7278 22.0634 18.8458 23.3348 15.6669 23.3348L8.16505 23.3347C4.98617 23.3347 2.10424 22.0634 0 20.0014L0.00138998 20Z" fill="#198CFF"/>
<path d="M8.16506 16.668C4.98618 16.668 2.10424 17.9393 0 20.0013C2.10424 22.0633 4.98617 23.3347 8.16505 23.3347L15.6669 23.3347C18.8458 23.3347 21.7278 22.0634 23.832 20.0014C21.7278 17.9394 18.8458 16.668 15.6669 16.668L8.16506 16.668Z" fill="#0151C9"/>
<path d="M0.00137699 20H0V0H15.6669C22.1103 0 27.3337 5.22334 27.3337 11.6667C27.3337 14.9311 25.9929 17.8825 23.832 20H23.8306C21.7264 17.9388 18.8451 16.668 15.6669 16.668L8.16505 16.668C4.98687 16.668 2.1055 17.9388 0.00137699 20Z" fill="#02D6CA"/>
<path d="M107.85 29.4999C106.574 29.4999 105.315 29.2755 104.072 28.8265C102.829 28.3776 101.727 27.7282 100.766 26.8784L103.326 23.848C104.006 24.4092 104.759 24.8662 105.588 25.2189C106.433 25.5556 107.22 25.724 107.949 25.724C109.589 25.724 110.409 25.1869 110.409 24.1126C110.409 23.5514 110.045 23.0864 109.316 22.7177C109.117 22.6054 108.595 22.381 107.75 22.0443L105.315 21.0582C104.204 20.6253 103.285 19.9919 102.556 19.1582C101.843 18.3084 101.487 17.2662 101.487 16.0316C101.487 14.4764 102.133 13.1696 103.426 12.1114C104.718 11.0371 106.358 10.5 108.347 10.5C109.473 10.5 110.575 10.7084 111.652 11.1253C112.746 11.5262 113.698 12.1194 114.51 12.9051L112.249 15.6709C110.956 14.7249 109.656 14.2519 108.347 14.2519C107.651 14.2519 107.096 14.3882 106.681 14.6607C106.284 14.9333 106.085 15.3101 106.085 15.7911C106.085 16.224 106.276 16.5688 106.657 16.8253C107.054 17.0658 107.717 17.3624 108.645 17.7152C108.794 17.7633 108.902 17.8033 108.968 17.8354L111.329 18.7493C113.814 19.7274 115.057 21.4029 115.057 23.7759C115.057 25.3793 114.403 26.7341 113.094 27.8404C111.801 28.9468 110.053 29.4999 107.85 29.4999Z" fill="#198CFF"/>
<path d="M89.8728 29.5002C88.597 29.5002 87.3377 29.2757 86.095 28.8268C84.8524 28.3778 83.7505 27.7284 82.7896 26.8787L85.3494 23.8483C86.0288 24.4095 86.7827 24.8664 87.6111 25.2192C88.4561 25.5559 89.2431 25.7242 89.9722 25.7242C91.6125 25.7242 92.4327 25.1871 92.4327 24.1128C92.4327 23.5517 92.0681 23.0867 91.3391 22.7179C91.1403 22.6057 90.6184 22.3812 89.7733 22.0445L87.3377 21.0584C86.2276 20.6255 85.308 19.9922 84.579 19.1584C83.8665 18.3087 83.5103 17.2665 83.5103 16.0319C83.5103 14.4766 84.1565 13.1699 85.4489 12.1116C86.7412 11.0374 88.3816 10.5002 90.3698 10.5002C91.4965 10.5002 92.5984 10.7087 93.6753 11.1256C94.7689 11.5264 95.7216 12.1196 96.5335 12.9053L94.2718 15.6711C92.9794 14.7251 91.6788 14.2521 90.3698 14.2521C89.6739 14.2521 89.1189 14.3884 88.7047 14.661C88.307 14.9336 88.1082 15.3104 88.1082 15.7914C88.1082 16.2243 88.2987 16.569 88.6798 16.8255C89.0775 17.066 89.7402 17.3627 90.6681 17.7154C90.8172 17.7635 90.9249 17.8036 90.9912 17.8357L93.3522 18.7496C95.8376 19.7276 97.0802 21.4032 97.0802 23.7761C97.0802 25.3795 96.4258 26.7344 95.1168 27.8407C93.8244 28.947 92.0764 29.5002 89.8728 29.5002Z" fill="#198CFF"/>
<path d="M69.7329 10.5L74.8547 29.4999L79.2949 29.4999L73.2479 10.5L69.7329 10.5Z" fill="#198CFF"/>
<path d="M71.5083 10.5L66.3865 29.4999L61.9463 29.4999L67.9933 10.5L71.5083 10.5Z" fill="#198CFF"/>
<rect x="65.1467" y="21.4456" width="10.7392" height="3.9239" fill="#198CFF"/>
<rect x="218.379" y="10.5" width="14.8696" height="3.9239" fill="#198CFF"/>
<rect x="228.088" y="10.5" width="18.9999" height="4.54349" transform="rotate(90 228.088 10.5)" fill="#198CFF"/>
<rect x="202.892" y="10.5" width="11.9783" height="3.9239" fill="#198CFF"/>
<rect x="202.892" y="25.5759" width="12.1848" height="3.9239" fill="#198CFF"/>
<rect x="202.892" y="17.9348" width="10.7392" height="3.9239" fill="#198CFF"/>
<rect x="207.434" y="10.5" width="18.9999" height="4.54349" transform="rotate(90 207.434 10.5)" fill="#198CFF"/>
<rect x="187.606" y="25.5759" width="11.9783" height="3.9239" fill="#198CFF"/>
<rect x="192.149" y="10.5" width="18.9999" height="4.54349" transform="rotate(90 192.149 10.5)" fill="#198CFF"/>
<rect x="172.323" y="25.5759" width="11.9783" height="3.9239" fill="#198CFF"/>
<rect x="176.866" y="10.5" width="18.9999" height="4.54349" transform="rotate(90 176.866 10.5)" fill="#198CFF"/>
<path d="M159.458 10.5L164.579 29.4999L169.02 29.4999L162.973 10.5L159.458 10.5Z" fill="#198CFF"/>
<path d="M161.233 10.5L156.111 29.4999L151.671 29.4999L157.718 10.5L161.233 10.5Z" fill="#198CFF"/>
<rect x="154.871" y="21.4456" width="10.7392" height="3.9239" fill="#198CFF"/>
<path d="M145.582 10.5L142.897 29.4999L146.821 29.4999L150.332 10.5L145.582 10.5Z" fill="#198CFF"/>
<path d="M140.391 10.5L136.182 29.4999L132.775 29.4999L136.802 10.5L140.391 10.5Z" fill="#198CFF"/>
<path d="M137.112 10.5L141.321 29.4999L144.728 29.4999L140.701 10.5L137.112 10.5Z" fill="#198CFF"/>
<path d="M131.743 10.5L134.428 29.4999L130.504 29.4999L126.993 10.5L131.743 10.5Z" fill="#198CFF"/>
<path fill-rule="evenodd" clip-rule="evenodd" d="M53.1647 14.4239H45.3169V10.5H53.1647C56.3014 10.5 58.8441 13.0427 58.8441 16.1793C58.8441 19.3159 56.3014 21.8587 53.1647 21.8587H45.3169V17.9348H53.1647C54.1343 17.9348 54.9202 17.1488 54.9202 16.1793C54.9202 15.2098 54.1343 14.4239 53.1647 14.4239Z" fill="#198CFF"/>
<path fill-rule="evenodd" clip-rule="evenodd" d="M54.0941 21.8587H45.3169V17.9348H54.0941C57.2878 17.9348 59.8767 20.5238 59.8767 23.7174C59.8767 26.911 57.2878 29.5 54.0941 29.5H45.3169V25.5761H54.0941C55.1206 25.5761 55.9528 24.7439 55.9528 23.7174C55.9528 22.6909 55.1206 21.8587 54.0941 21.8587Z" fill="#198CFF"/>
<rect x="49.8579" y="10.5" width="18.9999" height="4.54349" transform="rotate(90 49.8579 10.5)" fill="#198CFF"/>
</g>
<defs>
<clipPath id="clip0_973_85317">
<rect width="234" height="40" fill="white"/>
</clipPath>
</defs>
</svg>
