<svg width="284" height="48" viewBox="0 0 284 48" fill="none" xmlns="http://www.w3.org/2000/svg">
<g clip-path="url(#clip0_663_34308)">
<rect x="0.68425" y="0.685715" width="46.6286" height="46.6286" rx="8.03304" fill="white" stroke="#DFE8F0" stroke-width="1.37143"/>
<g clip-path="url(#clip1_663_34308)">
<path fill-rule="evenodd" clip-rule="evenodd" d="M13.8162 39.9373H26.3013C31.4359 39.9373 35.5982 35.7749 35.5982 30.6404C35.5982 25.5059 31.4359 21.3435 26.3013 21.3435H13.8162V39.9373Z" fill="#198CFF"/>
<path fill-rule="evenodd" clip-rule="evenodd" d="M13.8159 26.6563H26.3011C31.4356 26.6563 35.598 22.4939 35.598 17.3594C35.598 12.2249 31.4356 8.0625 26.3011 8.0625H13.8159V26.6563Z" fill="#02D6CA"/>
<rect x="13.8176" y="23.9993" width="18.8063" height="3.1875" fill="#198CFF"/>
<path d="M26.3048 26.658H22.1078V21.3455H26.3048C28.838 21.3455 31.1345 22.3586 32.8113 24.0017C31.1345 25.6449 28.838 26.658 26.3048 26.658Z" fill="#0151C9"/>
<path d="M20.327 21.3435H24.1799V26.656H20.327C17.7939 26.656 15.4973 25.6429 13.8205 23.9997C15.4973 22.3566 17.7939 21.3435 20.327 21.3435Z" fill="#0151C9"/>
</g>
<path d="M139.706 36.1569C138.152 36.1569 136.618 35.8835 135.105 35.3367C133.591 34.7899 132.249 33.999 131.079 32.964L134.197 29.2731C135.024 29.9566 135.942 30.5132 136.951 30.9428C137.981 31.3529 138.939 31.5579 139.827 31.5579C141.825 31.5579 142.824 30.9037 142.824 29.5953C142.824 28.9118 142.38 28.3455 141.492 27.8963C141.25 27.7596 140.614 27.4862 139.585 27.0761L136.618 25.8751C135.266 25.3479 134.146 24.5765 133.258 23.561C132.391 22.526 131.957 21.2566 131.957 19.753C131.957 17.8587 132.744 16.2671 134.318 14.9782C135.892 13.6698 137.89 13.0156 140.311 13.0156C141.684 13.0156 143.026 13.2695 144.338 13.7772C145.669 14.2654 146.83 14.988 147.819 15.9449L145.064 19.3136C143.49 18.1614 141.906 17.5853 140.311 17.5853C139.464 17.5853 138.788 17.7513 138.283 18.0833C137.799 18.4153 137.557 18.8742 137.557 19.46C137.557 19.9873 137.789 20.4072 138.253 20.7196C138.737 21.0125 139.545 21.3738 140.675 21.8034C140.856 21.862 140.988 21.9109 141.068 21.9499L143.944 23.063C146.971 24.2543 148.485 26.295 148.485 29.1852C148.485 31.1381 147.687 32.7882 146.093 34.1357C144.519 35.4832 142.39 36.1569 139.706 36.1569Z" fill="#198CFF"/>
<path d="M118.684 36.1569C117.13 36.1569 115.596 35.8835 114.082 35.3367C112.569 34.7899 111.227 33.999 110.056 32.964L113.174 29.2731C114.002 29.9566 114.92 30.5132 115.929 30.9428C116.958 31.3529 117.917 31.5579 118.805 31.5579C120.803 31.5579 121.802 30.9037 121.802 29.5953C121.802 28.9118 121.358 28.3455 120.47 27.8963C120.227 27.7596 119.592 27.4862 118.563 27.0761L115.596 25.8751C114.244 25.3479 113.124 24.5765 112.236 23.561C111.368 22.526 110.934 21.2566 110.934 19.753C110.934 17.8587 111.721 16.2671 113.295 14.9782C114.869 13.6698 116.867 13.0156 119.289 13.0156C120.661 13.0156 122.003 13.2695 123.315 13.7772C124.647 14.2654 125.807 14.988 126.796 15.9449L124.042 19.3136C122.467 18.1614 120.883 17.5853 119.289 17.5853C118.441 17.5853 117.765 17.7513 117.261 18.0833C116.777 18.4153 116.534 18.8742 116.534 19.46C116.534 19.9873 116.766 20.4072 117.231 20.7196C117.715 21.0125 118.522 21.3738 119.652 21.8034C119.834 21.862 119.965 21.9109 120.046 21.9499L122.922 23.063C125.949 24.2543 127.462 26.295 127.462 29.1852C127.462 31.1381 126.665 32.7882 125.071 34.1357C123.497 35.4832 121.368 36.1569 118.684 36.1569Z" fill="#198CFF"/>
<path d="M94.7781 13.0151L101.016 36.1564L106.424 36.1564L99.0593 13.0151L94.7781 13.0151Z" fill="#198CFF"/>
<path d="M96.9406 13.0151L90.7023 36.1564L85.2942 36.1564L92.6593 13.0151L96.9406 13.0151Z" fill="#198CFF"/>
<rect x="89.1927" y="26.3469" width="13.0801" height="4.77918" fill="#198CFF"/>
<rect x="265.884" y="13.0149" width="18.1109" height="4.77918" fill="#198CFF"/>
<rect x="277.707" y="13.0149" width="23.1413" height="5.53389" transform="rotate(90 277.707 13.0149)" fill="#198CFF"/>
<rect x="247.336" y="13.0154" width="14.5893" height="4.77918" fill="#198CFF"/>
<rect x="247.336" y="31.3792" width="14.8409" height="4.77918" fill="#198CFF"/>
<rect x="247.336" y="22.0715" width="13.0801" height="4.77918" fill="#198CFF"/>
<rect x="252.871" y="13.0154" width="23.1413" height="5.53389" transform="rotate(90 252.871 13.0154)" fill="#198CFF"/>
<rect x="229.041" y="31.3789" width="14.5893" height="4.77918" fill="#198CFF"/>
<rect x="234.576" y="13.0154" width="23.1413" height="5.53389" transform="rotate(90 234.576 13.0154)" fill="#198CFF"/>
<rect x="210.666" y="31.3787" width="14.5893" height="4.77918" fill="#198CFF"/>
<rect x="216.2" y="13.0149" width="23.1413" height="5.53389" transform="rotate(90 216.2 13.0149)" fill="#198CFF"/>
<path d="M195.314 13.0149L201.552 36.1562L206.96 36.1562L199.595 13.0149L195.314 13.0149Z" fill="#198CFF"/>
<path d="M197.476 13.0149L191.238 36.1562L185.83 36.1562L193.195 13.0149L197.476 13.0149Z" fill="#198CFF"/>
<rect x="189.728" y="26.3464" width="13.0801" height="4.77918" fill="#198CFF"/>
<path d="M179.107 13.0149L175.837 36.1562L180.617 36.1562L184.893 13.0149L179.107 13.0149Z" fill="#198CFF"/>
<path d="M172.788 13.0149L167.661 36.1562L163.511 36.1562L168.416 13.0149L172.788 13.0149Z" fill="#198CFF"/>
<path d="M168.795 13.0149L173.921 36.1562L178.072 36.1562L173.167 13.0149L168.795 13.0149Z" fill="#198CFF"/>
<path d="M162.252 13.0149L165.522 36.1562L160.743 36.1562L156.467 13.0149L162.252 13.0149Z" fill="#198CFF"/>
<path fill-rule="evenodd" clip-rule="evenodd" d="M75.5583 17.795H65.9998V13.0159H75.5583C79.3786 13.0159 82.4756 16.1128 82.4756 19.9331C82.4756 23.7534 79.3786 26.8503 75.5583 26.8503H65.9998V22.0711H75.5583C76.7391 22.0711 77.6964 21.1139 77.6964 19.9331C77.6964 18.7523 76.7391 17.795 75.5583 17.795Z" fill="#198CFF"/>
<path fill-rule="evenodd" clip-rule="evenodd" d="M76.69 26.8497H65.9995V22.0706H76.69C80.5798 22.0706 83.7331 25.2238 83.7331 29.1136C83.7331 33.0033 80.5798 36.1565 76.69 36.1565H65.9995V31.3774H76.69C77.9403 31.3774 78.9538 30.3638 78.9538 29.1136C78.9538 27.8633 77.9403 26.8497 76.69 26.8497Z" fill="#198CFF"/>
<rect x="71.5336" y="13.0156" width="23.1413" height="5.53389" transform="rotate(90 71.5336 13.0156)" fill="#198CFF"/>
</g>
<defs>
<clipPath id="clip0_663_34308">
<rect width="284" height="48" fill="white"/>
</clipPath>
<clipPath id="clip1_663_34308">
<rect width="31.875" height="31.875" fill="white" transform="translate(8.05835 8.0625)"/>
</clipPath>
</defs>
</svg>
