<svg width="28" height="40" viewBox="0 0 28 40" fill="none" xmlns="http://www.w3.org/2000/svg">
<path d="M0.00138998 20H0V20.0014V40H15.6669C22.1103 40 27.3337 34.7766 27.3337 28.3333C27.3337 25.0688 25.9929 22.1175 23.832 20H23.8306L23.832 20.0014C21.7278 22.0634 18.8458 23.3348 15.6669 23.3348L8.16505 23.3347C4.98617 23.3347 2.10424 22.0634 0 20.0014L0.00138998 20Z" fill="#198CFF"/>
<path d="M8.16506 16.668C4.98618 16.668 2.10424 17.9393 0 20.0013C2.10424 22.0633 4.98617 23.3347 8.16505 23.3347L15.6669 23.3347C18.8458 23.3347 21.7278 22.0634 23.832 20.0014C21.7278 17.9394 18.8458 16.668 15.6669 16.668L8.16506 16.668Z" fill="#0151C9"/>
<path d="M0.00137699 20H0V0H15.6669C22.1103 0 27.3337 5.22334 27.3337 11.6667C27.3337 14.9311 25.9929 17.8825 23.832 20H23.8306C21.7264 17.9388 18.8451 16.668 15.6669 16.668L8.16505 16.668C4.98687 16.668 2.1055 17.9388 0.00137699 20Z" fill="#02D6CA"/>
</svg>
